<svg xmlns="http://www.w3.org/2000/svg" xmlns:xlink="http://www.w3.org/1999/xlink" width="1220px" height="620px" viewBox="0 0 1220 620" preserveAspectRatio="xMidYMid meet" >
<rect id="svgEditorBackground" x="0" y="0" width="1220" height="620" style="fill: #073349; stroke: none;"/>
<circle id="e1_circle" cx="217" cy="351" style="fill: #5353b6f8; stroke-width: 1px;" r="112.8937553632"/>
<circle id="e2_circle" cx="552.6746826171875" cy="283.49481201171875" style="fill: #5353b6f8; stroke-width: 1px;" r="112.8937553632" transform="matrix(1.48212 0 0 1.48212 -140.882 -148.924)"/>
<circle id="e3_circle" cx="926" cy="449" style="fill: #5353b6f8; stroke-width: 1px;" r="112.8937553632" transform="matrix(0.70503 0 0 0.70503 280.892 146.192)"/>
<circle id="e14_circle" cx="316.1679992675781" cy="-108.35174560546875" style="fill: #5353b6f8; stroke-width: 1px;" r="112.8937553632" transform="matrix(0.70503 0 0 0.70503 280.892 146.192)"/>
<circle id="e4_circle" cx="1013.85400390625" cy="68.28819274902344" style="fill: #5353b6f8; stroke-width: 1px;" r="112.8937553632" transform="matrix(0.569286 0 0 0.569286 447.927 198.225)"/>
<circle id="e6_circle" cx="706.3883666992188" cy="13.036643028259277" style="fill: #5353b6f8; stroke-width: 1px;" r="112.8937553632" transform="matrix(0.582976 -1.02669 1.02669 0.582976 430.295 658.116)"/>
<circle id="e7_circle" cx="1249.1378173828125" cy="-119.55974578857422" style="fill: #5353b6f8; stroke-width: 1px;" r="112.8937553632" transform="matrix(0.277316 -0.488385 0.488385 0.277316 800.626 482.028)"/>
<circle id="e8_circle" cx="639.30517578125" cy="-676.9107055664062" style="fill: #5353b6f8; stroke-width: 1px;" r="112.8937553632" transform="matrix(0.277316 -0.488385 0.488385 0.277316 800.626 482.028)"/>
<circle id="e9_circle" cx="1414.0443115234375" cy="-635.841064453125" style="fill: #5353b6f8; stroke-width: 1px;" r="112.8937553632" transform="matrix(0.223923 -0.394353 0.394353 0.223923 902.372 386.787)"/>
</svg>