<svg xmlns="http://www.w3.org/2000/svg" xmlns:xlink="http://www.w3.org/1999/xlink" width="940px" height="494px" viewBox="-0.043478261679410934 0 940.0869750976562 494" version="1.1" ><rect id="svgEditorBackground" x="0" y="0" width="940" height="494" style="fill:none;stroke:none;"/>
    <!-- Generator: Sketch 55.2 (78181) - https://sketchapp.com -->
    <title>Blog-illustraton-05-yellow Copy 22@2x</title>
    <desc>Created with Sketch.</desc>
    <g id="Blog-illustraton-05-yellow-Copy-22" stroke="none" stroke-width="1" fill="none" fill-rule="evenodd">
        <rect fill="#050038" x="-181.74" y="-251.127" width="979.652" height="533.651" transform="matrix(1.61271 0 0 1.61271 129.877 172.391)"/>
        <g id="Group-2-Copy" transform="translate(-572.000000, -57.000000)" fill="#FFD02F">
            <g id="Group">
                <polygon id="Fill-6" points="690.711016 425.459178 690.711016 966.129014 583.091023 966.155242 471.620888 468.616772"/>
                <polygon id="Fill-12" points="817.791203 396.356527 912 -1.42108547e-13 690.88126 -1.42108547e-13 690.88126 425.266567"/>
            </g>
        </g>
        <g id="Group-2-Copy-2" transform="translate(659.000000, -643.000000)" fill="#FFD02F">
            <g id="Group">
                <polygon id="Fill-4" points="331.550383 827.060484 331.550383 1300.88981 219.857376 1300.92894 120.574704 867.26371"/>
                <polygon id="Fill-8" points="219.090128 263.955952 1.56319402e-13 263.916835 102.592552 770.087341 225.743265 742.740257"/>
                <polygon id="Fill-14" points="198.804005 263.916835 211.659443 745.885611 417.894133 699.662884 312.077381 263.916835"/>
            </g>
        </g>
        <g id="Group-2" transform="translate(230.000000, -142.000000)" fill="#FFD02F">
            <polygon id="Fill-6-Copy" points="438.711016 391.542343 438.711016 932.21218 331.091023 932.238407 219.620888 434.699937"/>
            <polygon id="Fill-14-Copy" points="0.80400496 0 13.6594432 481.968776 219.894133 435.746049 114.077381 0"/>
        </g>
    </g>
</svg>