<?xml version="1.0" encoding="UTF-8"?>
<svg width="1973px" height="367px" viewBox="0 0 1973 367" version="1.1" xmlns="http://www.w3.org/2000/svg" xmlns:xlink="http://www.w3.org/1999/xlink">
    <!-- Generator: Sketch 55.2 (78181) - https://sketchapp.com -->
    <title>Blog-illustraton-05-yellow Copy 24@2x</title>
    <desc>Created with Sketch.</desc>
    <g id="Blog-illustraton-05-yellow-Copy-24" stroke="none" stroke-width="1" fill="none" fill-rule="evenodd">
        <rect fill="#020285f8" x="0" y="0" width="1973" height="367"></rect>
        <g id="Group-4" transform="translate(-91.000000, 29.000000)" fill="#FFD02F">
            <path d="M984.363933,174.092659 C978.170422,202.931176 948.592632,221.119736 918.298812,214.717171 C887.99895,208.314606 868.46069,179.745859 874.654201,150.907341 C880.84469,122.068824 910.42248,103.880264 940.719321,110.282829 C971.016162,116.685394 990.554422,145.254141 984.363933,174.092659" id="Fill-35"></path>
            <path d="M483.855361,169.092659 C477.661851,197.931176 448.084061,216.119736 417.790241,209.717171 C387.490379,203.314606 367.952119,174.745859 374.145629,145.907341 C380.336119,117.068824 409.913908,98.8802644 440.210749,105.282829 C470.50759,111.685394 490.04585,140.254141 483.855361,169.092659" id="Fill-35-Copy-2"></path>
            <path d="M771.128873,136.476196 C763.663481,171.244129 728.011681,193.172391 691.496808,185.453412 C654.974653,177.734432 631.424072,143.291737 638.889464,108.523804 C646.351214,73.7558713 682.003014,51.8276085 718.521528,59.5465883 C755.040042,67.2655681 778.590623,101.708263 771.128873,136.476196" id="Fill-35-Copy"></path>
            <path d="M270.620301,131.476196 C263.154909,166.244129 227.503109,188.172391 190.988237,180.453412 C154.466081,172.734432 130.9155,138.291737 138.380892,103.523804 C145.842643,68.7558713 181.494443,46.8276085 218.012957,54.5465883 C254.531471,62.2655681 278.082052,96.708263 270.620301,131.476196" id="Fill-35-Copy-3"></path>
            <path d="M907.577524,67.3169762 C902.547282,90.4957556 878.513237,105.115128 853.899587,99.9688731 C829.285938,94.8226182 813.408392,71.8619505 818.438634,48.6802238 C823.468876,25.5014444 847.502922,10.8850194 872.116571,16.0312743 C896.733224,21.1775292 912.610769,44.1381969 907.577524,67.3169762" id="Fill-36"></path>
            <path d="M407.068953,62.3169762 C402.038711,85.4957556 378.004665,100.115128 353.391016,94.9688731 C328.777366,89.8226182 312.899821,66.8619505 317.930063,43.6802238 C322.960305,20.5014444 346.99435,5.88501939 371.608,11.0312743 C396.224652,16.1775292 412.102198,39.1381969 407.068953,62.3169762" id="Fill-36-Copy-3"></path>
            <path d="M590.587756,57.9253132 C585.612791,81.3736132 561.842856,96.1629784 537.499686,90.9568833 C513.156516,85.7507882 497.453449,62.523136 502.428414,39.0718543 C507.403378,15.6235543 531.173313,0.837170776 555.516483,6.04326587 C579.862623,11.249361 595.56569,34.4770132 590.587756,57.9253132" id="Fill-36-Copy-2"></path>
            <path d="M617.587756,237.925313 C612.612791,261.373613 588.842856,276.162978 564.499686,270.956883 C540.156516,265.750788 524.453449,242.523136 529.428414,219.071854 C534.403378,195.623554 558.173313,180.837171 582.516483,186.043266 C606.862623,191.249361 622.56569,214.477013 617.587756,237.925313" id="Fill-36-Copy"></path>
            <path d="M1015.96718,75.0252076 C1013.03571,88.7701853 999.038461,97.4387565 984.702162,94.3893145 C970.368863,91.336874 961.121379,77.7208304 964.049849,63.9728542 C966.981319,50.2278765 980.978565,41.5593052 995.311864,44.6117458 C1009.65116,47.6641863 1018.89565,61.2802299 1015.96718,75.0252076" id="Fill-37"></path>
            <path d="M689.905887,285.066895 C686.642552,300.159419 671.060713,309.67785 655.101436,306.329443 C639.1455,302.977744 628.851131,288.026794 632.111126,272.930977 C635.374461,257.838453 650.9563,248.320021 666.912236,251.671721 C682.874853,255.02342 693.165881,269.97437 689.905887,285.066895" id="Fill-37-Copy"></path>
            <path d="M189.397315,280.066895 C186.133981,295.159419 170.552142,304.67785 154.592865,301.329443 C138.636928,297.977744 128.34256,283.026794 131.602554,267.930977 C134.865889,252.838453 150.447728,243.320021 166.403665,246.671721 C182.366282,250.02342 192.65731,264.97437 189.397315,280.066895" id="Fill-37-Copy-3"></path>
            <path d="M619.956962,139.025208 C616.970181,152.770185 602.708837,161.438757 588.102041,158.389314 C573.498302,155.336874 564.076338,141.72083 567.060062,127.972854 C570.046843,114.227876 584.308187,105.559305 598.911926,108.611746 C613.521779,111.664186 622.940686,125.28023 619.956962,139.025208" id="Fill-37-Copy-2"></path>
            <path d="M837.211694,147.034288 C835.609902,154.579501 827.951522,159.339954 820.105763,157.66425 C812.260003,155.988547 807.200758,148.513028 808.805572,140.967815 C810.407365,133.419572 818.065744,128.662149 825.911504,130.334822 C833.754241,132.010526 838.816509,139.486045 837.211694,147.034288" id="Fill-44"></path>
            <path d="M336.703123,142.034288 C335.101331,149.579501 327.442951,154.339954 319.597191,152.66425 C311.751432,150.988547 306.692187,143.513028 308.297001,135.967815 C309.898793,128.419572 317.557173,123.662149 325.402932,125.334822 C333.24567,127.010526 338.307937,134.486045 336.703123,142.034288" id="Fill-44-Copy-2"></path>
            <path d="M953.211694,22.0342877 C951.609902,29.5795007 943.951522,34.3399544 936.105763,32.6642505 C928.260003,30.9885465 923.200758,23.5130283 924.805572,15.9678153 C926.407365,8.41957206 934.065744,3.6621486 941.911504,5.33482233 C949.754241,7.01052626 954.816509,14.4860445 953.211694,22.0342877" id="Fill-44-Copy"></path>
            <path d="M452.703123,17.0342877 C451.101331,24.5795007 443.442951,29.3399544 435.597191,27.6642505 C427.751432,25.9885465 422.692187,18.5130283 424.297001,10.9678153 C425.898793,3.41957206 433.557173,-1.3378514 441.402932,0.334822325 C449.24567,2.01052626 454.307937,9.48604452 452.703123,17.0342877" id="Fill-44-Copy-3"></path>
            <path d="M991.212552,249.034288 C989.610712,256.579501 981.952103,261.339954 974.106109,259.66425 C966.260116,257.988547 961.200719,250.513028 962.805581,242.967815 C964.407421,235.419572 972.06603,230.662149 979.912024,232.334822 C987.754996,234.010526 992.814392,241.486045 991.212552,249.034288" id="Fill-45"></path>
            <path d="M1365.45975,289.843042 C1362.92285,301.732971 1350.79357,309.234609 1338.36753,306.593995 C1325.94148,303.95338 1317.9287,292.173278 1320.47039,280.283348 C1323.00729,268.388644 1335.13657,260.891781 1347.56261,263.527621 C1359.98387,266.168236 1367.99666,277.948338 1365.45975,289.843042" id="Fill-45-Copy-3"></path>
            <path d="M725.151307,234.684492 C723.218052,243.846537 713.974903,249.627087 704.5056,247.592304 C695.036297,245.557521 688.930129,236.480106 690.867032,227.318061 C692.800287,218.152338 702.043435,212.375466 711.512738,214.40657 C720.978394,216.441353 727.084562,225.518768 725.151307,234.684492" id="Fill-45-Copy"></path>
            <path d="M224.642736,229.684492 C222.70948,238.846537 213.466332,244.627087 203.997029,242.592304 C194.527726,240.557521 188.421557,231.480106 190.35846,222.318061 C192.291715,213.152338 201.534864,207.375466 211.004167,209.40657 C220.469822,211.441353 226.575991,220.518768 224.642736,229.684492" id="Fill-45-Copy-7"></path>
            <path d="M667.30442,206.558981 C666.199703,211.678947 660.917904,214.909255 655.506874,213.77217 C650.095843,212.635085 646.606604,207.562412 647.713406,202.442446 C648.818123,197.320424 654.099922,194.092172 659.510953,195.227201 C664.919898,196.364286 668.409138,201.436959 667.30442,206.558981" id="Fill-45-Copy-4"></path>
            <path d="M1041.79585,152.558981 C1040.69113,157.678947 1035.40933,160.909255 1029.9983,159.77217 C1024.58727,158.635085 1021.09803,153.562412 1022.20483,148.442446 C1023.30955,143.320424 1028.59135,140.092172 1034.00238,141.227201 C1039.41133,142.364286 1042.90057,147.436959 1041.79585,152.558981" id="Fill-45-Copy-13"></path>
            <path d="M166.795849,201.558981 C165.691132,206.678947 160.409332,209.909255 154.998302,208.77217 C149.587272,207.635085 146.098033,202.562412 147.204834,197.442446 C148.309552,192.320424 153.591351,189.092172 159.002381,190.227201 C164.411327,191.364286 167.900566,196.436959 166.795849,201.558981" id="Fill-45-Copy-8"></path>
            <path d="M539.30442,152.167348 C538.199703,157.556786 532.917904,160.95711 527.506874,159.760179 C522.095843,158.563248 518.606604,153.223592 519.713406,147.834154 C520.818123,142.442551 526.099922,139.044392 531.510953,140.239159 C536.919898,141.43609 540.409138,146.775746 539.30442,152.167348" id="Fill-45-Copy-6"></path>
            <path d="M645.212552,43.0342877 C643.610712,50.5795007 635.952103,55.3399544 628.106109,53.6642505 C620.260116,51.9885465 615.200719,44.5130283 616.805581,36.9678153 C618.407421,29.4195721 626.06603,24.6621486 633.912024,26.3348223 C641.754996,28.0105263 646.814392,35.4860445 645.212552,43.0342877" id="Fill-45-Copy-2"></path>
            <path d="M144.703981,38.0342877 C143.102141,45.5795007 135.443532,50.3399544 127.597538,48.6642505 C119.751544,46.9885465 114.692147,39.5130283 116.29701,31.9678153 C117.89885,24.4195721 125.557459,19.6621486 133.403453,21.3348223 C141.246424,23.0105263 146.305821,30.4860445 144.703981,38.0342877" id="Fill-45-Copy-10"></path>
            <path d="M529.212552,295.42592 C527.610712,302.701661 519.952103,307.292099 512.106109,305.676242 C504.260116,304.060384 499.200719,296.851849 500.805581,289.576108 C502.407421,282.297444 510.06603,277.709929 517.912024,279.322864 C525.754996,280.938722 530.814392,288.147257 529.212552,295.42592" id="Fill-45-Copy-5"></path>
            <path d="M942.028181,288.592265 C939.430368,301.259566 927.018921,309.249709 914.30547,306.436107 C901.59202,303.62555 893.391023,291.07396 895.988836,278.409704 C898.589581,265.742403 911.001029,257.752259 923.714479,260.562816 C936.42793,263.376419 944.625994,275.924964 942.028181,288.592265" id="Fill-49"></path>
            <path d="M441.51961,283.592265 C438.921797,296.259566 426.510349,304.249709 413.796899,301.436107 C401.083448,298.62555 392.882452,286.07396 395.480265,273.409704 C398.08101,260.742403 410.492457,252.752259 423.205908,255.562816 C435.919358,258.376419 444.117423,270.924964 441.51961,283.592265" id="Fill-49-Copy-3"></path>
            <path d="M1417.55298,198.736833 C1413.38969,218.556702 1393.49893,231.058465 1373.12417,226.656167 C1352.74942,222.258634 1339.60639,202.619812 1343.76968,182.804708 C1347.93767,162.984839 1367.82843,150.483076 1388.20318,154.880609 C1408.57794,159.282907 1421.71627,178.916965 1417.55298,198.736833" id="Fill-49-Copy-2"></path>
            <path d="M795.01796,33.5922648 C792.364874,46.2595657 779.689354,54.2497094 766.705404,51.436107 C753.721455,48.6255496 745.345969,36.0739595 747.999055,23.4097036 C750.655135,10.7424026 763.330655,2.7522589 776.314605,5.56281631 C789.298554,8.37641874 797.671046,20.9249638 795.01796,33.5922648" id="Fill-49-Copy"></path>
            <path d="M294.509389,28.5922648 C291.856303,41.2595657 279.180782,49.2497094 266.196833,46.436107 C253.212883,43.6255496 244.837398,31.0739595 247.490483,18.4097036 C250.146563,5.7424026 262.822084,-2.2477411 275.806033,0.562816311 C288.789983,3.37641874 297.162474,15.9249638 294.509389,28.5922648" id="Fill-49-Copy-4"></path>
            <path d="M864.363485,260.094547 C858.174177,288.931563 828.590863,307.121666 798.296425,300.716229 C768.001987,294.31358 748.46154,265.74706 754.653658,236.907255 C760.842965,208.07024 790.423469,189.880137 820.720718,196.282785 C851.015156,202.688222 870.555603,231.254743 864.363485,260.094547" id="Fill-50"></path>
            <path d="M363.854913,255.094547 C357.665606,283.931563 328.082292,302.121666 297.787854,295.716229 C267.493416,289.31358 247.952969,260.74706 254.145087,231.907255 C260.334394,203.07024 289.914897,184.880137 320.212146,191.282785 C350.506584,197.688222 370.047031,226.254743 363.854913,255.094547" id="Fill-50-Copy"></path>
        </g>
       
    </g>
</svg>