<?xml version="1.0" encoding="UTF-8"?>
<svg width="1400px" height="968px" viewBox="0 0 309 968" version="1.1" xmlns="http://www.w3.org/2000/svg" xmlns:xlink="http://www.w3.org/1999/xlink">
    <!-- Generator: Sketch 53 (72520) - https://sketchapp.com -->
    <desc>Created with Sketch.</desc>
    <g id="Home" stroke="none" stroke-width="1" fill="none" fill-rule="evenodd">
        <g id="Group-18" fill="#073349">
            <path d="M92.0810788,192.806303 C64.9705536,187.125349 47.4842111,161.775934 53.0243707,136.186166 C58.5655076,110.596399 85.0359191,94.4572611 112.146444,100.138214 C139.257947,105.821091 156.744289,131.170506 151.203152,156.759313 C145.662015,182.34908 119.192581,198.487256 92.0810788,192.806303 Z" id="Fill-16"></path>
            <path d="M306.116648,294.111234 C295.226467,344.413241 243.194603,376.136436 189.902036,364.967242 C136.611264,353.799815 102.240028,303.97129 113.130209,253.67105 C124.022186,203.370811 176.052254,171.647615 229.344821,182.815042 C282.635592,193.982469 317.006829,243.810995 306.116648,294.111234" id="Fill-18"></path>
            <path d="M145.383252,87.7455385 C127.537273,84.0056656 116.027931,67.3204488 119.674136,50.4765999 C123.321318,33.632751 140.745115,23.0101662 158.590117,26.7490776 C176.435119,30.4889505 187.945438,47.1741672 184.298256,64.0189776 C180.651074,80.8628265 163.227277,91.4854113 145.383252,87.7455385 Z" id="Fill-21"></path>
            <path d="M69.53387,252.970961 C55.8989597,250.11366 47.1044816,237.364443 49.8916637,224.49505 C52.6778685,211.625657 65.9902788,203.508499 79.6242119,206.366762 C93.2600994,209.224063 102.054578,221.972318 99.2673954,234.841711 C96.4802134,247.712065 83.1678031,255.828262 69.53387,252.970961 Z" id="Fill-23"></path>
            <path d="M12.7191354,163.765835 C4.11620278,161.963197 -1.43372954,153.919105 0.325361531,145.799062 C2.08347533,137.67902 10.4831352,132.558567 19.0860678,134.361204 C27.6890004,136.163842 33.2379554,144.207934 31.4798416,152.327977 C29.7207505,160.448019 21.3210907,165.568472 12.7191354,163.765835 Z" id="Fill-25"></path>
            <path d="M44.1576763,47.1770313 C30.522766,44.31973 21.7282879,31.570513 24.51547,18.7011203 C27.3016748,5.83172749 40.6140851,-2.28543098 54.2480181,0.572831739 C67.8839057,3.43013305 76.6783838,16.1783886 73.8912017,29.0477813 C71.1040197,41.9181355 57.7916094,50.0343326 44.1576763,47.1770313 Z" id="Fill-23"></path>
        </g>
    </g>
</svg>