<svg xmlns="http://www.w3.org/2000/svg" xmlns:xlink="http://www.w3.org/1999/xlink" width="35px" height="35px" viewBox="0 0 35 35" version="1.1" ><rect id="svgEditorBackground" x="0" y="0" width="35" height="35" style="fill: none; stroke: none;"/><defs id="svgEditorDefs"><polygon id="svgEditorShapeDefs" style="fill:white;stroke:black;vector-effect:non-scaling-stroke;stroke-width:1px;"/></defs>
    <g id="Symbols" stroke="none" stroke-width="1" fill="none" fill-rule="evenodd">
        <g id="Footer-Page1" transform="translate(-1265.000000, 1.000000)" fill-rule="nonzero">
            <g id="Social-networks" transform="translate(934.000000, 0.000000)">
                <g id="picto-email" transform="matrix(1 0 0 1 332.432 0.172626)">
                    <circle id="Oval" stroke="#ffffff" stroke-width="2" cx="16.0685" cy="16.5" r="16.5"/>
                </g>
            </g>
        </g>
    </g>
<g style="fill:#ffffff; vector-effect: non-scaling-stroke; stroke-width: 1px;" id="shape" transform="matrix(0.137899 0 0 0.137899 9.32183 9.18696)"><path d="M64 82l-64-48v70c0 4.419 3.581 8 8 8h112c4.419 0 8-3.581 8-8v-70l-64 48z"/><path d="M120 16h-112c-4.419 0-8 3.581-8 8l64 48 64-48c0-4.419-3.581-8-8-8z"/></g></svg>