<?xml version="1.0" encoding="UTF-8"?>
<svg xmlns="http://www.w3.org/2000/svg" xmlns:xlink="http://www.w3.org/1999/xlink" viewBox="0 -8.526512829121202e-14 1440 131.3752899169922" version="1.1" style="box-shadow: none; border-radius: 0px; opacity: 1;" preserveAspectRatio="xMidYMid meet" fill="#FFD02F" fill-opacity="1">
    <g id="fab44ce9-5709-477c-ad15-122fc962804e" stroke="none" stroke-width="1" fill="" fill-rule="evenodd" style="undefined" fill-opacity="">
        <path d="M1440,2.1388151 L1440,124.242964 C1425.94221,128.522362 1409.07208,131.375294 1386.57724,131.375294 C1296.58602,131.375294 1296.58602,60.086047 1206.59084,60.086047 C1116.71449,60.086047 1116.71449,131.375294 1026.83814,131.375294 C936.914252,131.375294 936.914252,60.086047 846.99433,60.086047 C757.034796,60.086047 757.034796,131.375294 667.071302,131.375294 C577.111768,131.375294 577.111768,60.086047 487.148274,60.086047 C397.291728,60.086047 397.291728,131.375294 307.435182,131.375294 C217.47961,131.375294 217.47961,60.086047 127.520076,60.086047 C60.0434945,60.086047 43.1733588,111.40477 1,124.242964 L0,0 L1440,2.1388151 Z" id="c80c1884-c1ef-429d-b621-41a63314910c" fill="" transform="translate(720.000000, 65.687647) rotate(180.000000) translate(-720.000000, -65.687647) " style="undefined" fill-opacity=""></path>
    </g>
</svg>